<svg width="15" height="14" viewBox="0 0 15 14" fill="none" xmlns="http://www.w3.org/2000/svg">
<path d="M0.46875 9.28125C0.59307 9.28125 0.712299 9.33064 0.800206 9.41854C0.888114 9.50645 0.9375 9.62568 0.9375 9.75V12.0938C0.9375 12.3424 1.03627 12.5808 1.21209 12.7567C1.3879 12.9325 1.62636 13.0312 1.875 13.0312H13.125C13.3736 13.0312 13.6121 12.9325 13.7879 12.7567C13.9637 12.5808 14.0625 12.3424 14.0625 12.0938V9.75C14.0625 9.62568 14.1119 9.50645 14.1998 9.41854C14.2877 9.33064 14.4069 9.28125 14.5312 9.28125C14.6556 9.28125 14.7748 9.33064 14.8627 9.41854C14.9506 9.50645 15 9.62568 15 9.75V12.0938C15 12.591 14.8025 13.0679 14.4508 13.4196C14.0992 13.7712 13.6223 13.9688 13.125 13.9688H1.875C1.37772 13.9688 0.900806 13.7712 0.549175 13.4196C0.197544 13.0679 0 12.591 0 12.0938V9.75C0 9.62568 0.049386 9.50645 0.137294 9.41854C0.225201 9.33064 0.34443 9.28125 0.46875 9.28125Z" fill="#E95454"/>
<path d="M7.16872 11.1131C7.21226 11.1568 7.26399 11.1914 7.32094 11.215C7.37788 11.2387 7.43894 11.2508 7.50059 11.2508C7.56225 11.2508 7.6233 11.2387 7.68025 11.215C7.7372 11.1914 7.78892 11.1568 7.83247 11.1131L10.645 8.30062C10.733 8.21261 10.7824 8.09323 10.7824 7.96875C10.7824 7.84427 10.733 7.72489 10.645 7.63687C10.5569 7.54886 10.4376 7.49941 10.3131 7.49941C10.1886 7.49941 10.0692 7.54886 9.98122 7.63687L7.96934 9.64969V1.40625C7.96934 1.28193 7.91996 1.1627 7.83205 1.07479C7.74414 0.986886 7.62491 0.9375 7.50059 0.9375C7.37627 0.9375 7.25704 0.986886 7.16914 1.07479C7.08123 1.1627 7.03184 1.28193 7.03184 1.40625V9.64969L5.01997 7.63687C4.93195 7.54886 4.81257 7.49941 4.68809 7.49941C4.56362 7.49941 4.44424 7.54886 4.35622 7.63687C4.2682 7.72489 4.21875 7.84427 4.21875 7.96875C4.21875 8.09323 4.2682 8.21261 4.35622 8.30062L7.16872 11.1131Z" fill="#E95454"/>
</svg>
