<svg width="149" height="58" viewBox="0 0 149 58" fill="none" xmlns="http://www.w3.org/2000/svg">
<g clip-path="url(#clip0_2716_4188)">
<path d="M29.6208 34.7836H33.1121V25.3271L37.3345 12.5722H33.9347L31.5584 20.7313H31.4944L29.109 12.5722H25.3984L29.6208 25.3271V34.7836ZM43.3939 35.1034C44.1166 35.1523 44.8414 35.0472 45.5205 34.7952C46.1995 34.5432 46.8173 34.15 47.333 33.6415C48.3014 32.4948 48.7893 31.0186 48.6948 29.5208V17.8441C48.7912 16.3406 48.3034 14.8579 47.333 13.7051C46.816 13.1986 46.1979 12.8066 45.5193 12.5547C44.8406 12.3029 44.1164 12.1967 43.3939 12.2433C42.6728 12.1963 41.9499 12.3023 41.2727 12.5542C40.5954 12.8061 39.979 13.1984 39.464 13.7051C38.4893 14.8523 37.9978 16.3328 38.0931 17.835V29.5208C37.9973 31.0203 38.489 32.4981 39.464 33.6415C39.978 34.1497 40.5942 34.5429 41.2717 34.7949C41.9493 35.047 42.6727 35.1521 43.3939 35.1034ZM41.5661 17.6157C41.5661 16.1629 42.1693 15.432 43.3939 15.432C44.6186 15.432 45.2218 16.1629 45.2218 17.6157V29.7401C45.2218 31.202 44.6125 31.9329 43.3939 31.9329C42.1754 31.9329 41.5661 31.202 41.5661 29.7401V17.6157ZM56.1252 35.1034C56.8365 35.1507 57.5498 35.0465 58.2178 34.7976C58.8858 34.5487 59.4934 34.1609 60.0003 33.6598C60.9517 32.4984 61.4254 31.0187 61.3255 29.5208V12.5722H57.9622V29.7675C58.0186 30.3562 57.8559 30.945 57.5052 31.4213C57.3353 31.5959 57.1299 31.7319 56.9028 31.8202C56.6758 31.9085 56.4324 31.9469 56.1891 31.9329C55.9397 31.9543 55.6887 31.9194 55.4546 31.8308C55.2205 31.7423 55.0093 31.6023 54.8365 31.4213C54.4826 30.9463 54.3166 30.3574 54.3704 29.7675V12.5722H50.9157V29.5208C50.8192 31.0198 51.2962 32.4993 52.25 33.6598C52.7566 34.1614 53.3641 34.5495 54.0322 34.7984C54.7003 35.0473 55.4138 35.1513 56.1252 35.1034ZM67.2935 25.2631H68.5456C68.8561 25.2299 69.17 25.2668 69.4642 25.3712C69.7585 25.4756 70.0255 25.6447 70.2456 25.8661C70.6362 26.5037 70.8094 27.2507 70.7391 27.995V32.0517C70.7097 32.6363 70.7158 33.2221 70.7574 33.806C70.8035 34.1527 70.8894 34.493 71.0133 34.8202H74.5685C74.3985 34.4537 74.2904 34.0616 74.2486 33.6598C74.199 33.1497 74.1776 32.6373 74.1846 32.1248V28.1869C74.2272 27.1146 74.05 26.045 73.6637 25.0438C73.4967 24.6634 73.2454 24.3258 72.9287 24.0568C72.612 23.7877 72.2383 23.5941 71.8358 23.4906V23.4266C73.359 22.8175 74.1207 21.3587 74.1207 19.0501V17.6796C74.235 16.2819 73.7914 14.8958 72.8868 13.8239C72.3457 13.3652 71.7189 13.0184 71.0427 12.8036C70.3666 12.5887 69.6545 12.5101 68.9478 12.5722H63.8023V34.7836H67.2935V25.2631ZM67.2935 15.7426H68.8838C69.1355 15.7227 69.3884 15.7609 69.623 15.8544C69.8576 15.9479 70.0675 16.0941 70.2364 16.2817C70.5609 16.803 70.7083 17.415 70.6568 18.0268V19.7445C70.7252 20.398 70.5386 21.0526 70.1359 21.5719C69.9243 21.7638 69.6757 21.9106 69.4054 22.0033C69.1352 22.096 68.8488 22.1326 68.5639 22.1109H67.2935V15.7426ZM81.1397 35.1034C81.8584 35.153 82.5793 35.0482 83.254 34.7961C83.9287 34.5439 84.5416 34.1502 85.0514 33.6415C86.0238 32.4724 86.5083 30.9738 86.404 29.4569C86.4338 28.1897 86.1513 26.9346 85.5815 25.8022C84.7849 24.4843 83.7642 23.3155 82.5655 22.3485C81.6647 21.6133 80.8683 20.7588 80.1984 19.8085C79.7605 19.1364 79.5228 18.3537 79.5129 17.5517C79.5129 16.1355 80.0979 15.432 81.2586 15.432C81.5001 15.4155 81.7423 15.4538 81.967 15.544C82.1917 15.6342 82.3932 15.7739 82.5564 15.9528C82.8969 16.437 83.0555 17.0259 83.0042 17.6157V18.7578H86.3035V17.8441C86.4106 16.3573 85.9647 14.8834 85.0514 13.7051C84.5624 13.2031 83.9696 12.8138 83.3145 12.5645C82.6594 12.3151 81.9578 12.2117 81.2586 12.2615C80.5486 12.2138 79.8365 12.3178 79.1699 12.5668C78.5033 12.8157 77.8974 13.2038 77.3926 13.7051C76.4406 14.8452 75.9629 16.3072 76.0582 17.7893C76.0373 19.0016 76.3334 20.1984 76.9173 21.2612C77.7288 22.555 78.7478 23.7064 79.9333 24.6692C80.8273 25.4118 81.6091 26.2796 82.2547 27.2458C82.6839 27.9928 82.9019 28.8423 82.8854 29.7036C82.9373 30.3061 82.7755 30.9077 82.4284 31.403C82.2553 31.5848 82.0445 31.7264 81.8109 31.8179C81.5772 31.9095 81.3263 31.9487 81.0758 31.9329C79.8572 31.9329 79.2479 31.2111 79.2479 29.7675V28.2508H75.9943V29.5208C75.8948 31.0141 76.3577 32.4905 77.292 33.6598C77.7916 34.1632 78.394 34.5527 79.0581 34.8019C79.7222 35.051 80.4322 35.1539 81.1397 35.1034ZM91.1291 34.7836H94.6204V15.7426H98.2761V12.5722H87.4825V15.7426H91.1291V34.7836ZM104.875 35.1034C105.597 35.1523 106.322 35.0472 107.001 34.7952C107.68 34.5432 108.298 34.15 108.814 33.6415C109.782 32.4948 110.27 31.0186 110.176 29.5208V17.8441C110.272 16.3406 109.784 14.8579 108.814 13.7051C107.72 12.7618 106.324 12.2428 104.879 12.2428C103.435 12.2428 102.039 12.7618 100.945 13.7051C99.9701 14.8523 99.4787 16.3328 99.5739 17.835V29.5208C99.4782 31.0203 99.9698 32.4981 100.945 33.6415C101.459 34.1497 102.075 34.5429 102.753 34.7949C103.43 35.047 104.154 35.1521 104.875 35.1034ZM103.047 17.6157C103.047 16.1629 103.65 15.432 104.875 15.432C106.099 15.432 106.703 16.1629 106.703 17.6157V29.7401C106.703 31.202 106.093 31.9329 104.875 31.9329C103.656 31.9329 103.047 31.202 103.047 29.7401V17.6157ZM116.016 25.2631H117.222C117.533 25.2299 117.847 25.2668 118.141 25.3712C118.435 25.4756 118.702 25.6447 118.922 25.8661C119.313 26.5037 119.486 27.2507 119.416 27.995V32.0517C119.403 32.6251 119.424 33.1986 119.48 33.7694C119.526 34.1162 119.612 34.4565 119.735 34.7836H123.282C123.118 34.4155 123.013 34.0239 122.971 33.6232C122.921 33.1132 122.9 32.6007 122.907 32.0883V28.1869C122.949 27.1146 122.772 26.045 122.386 25.0438C122.219 24.6634 121.968 24.3258 121.651 24.0568C121.334 23.7877 120.961 23.5941 120.558 23.4906V23.4266C122.087 22.8175 122.849 21.3587 122.843 19.0501V17.6796C122.957 16.2819 122.514 14.8958 121.609 13.8239C121.068 13.3652 120.441 13.0184 119.765 12.8036C119.089 12.5887 118.377 12.5101 117.67 12.5722H112.497V34.7836H115.988L116.016 25.2631ZM116.016 15.7426H117.606C117.856 15.722 118.108 15.76 118.341 15.8535C118.575 15.9471 118.783 16.0937 118.95 16.2817C119.285 16.7986 119.436 17.4134 119.379 18.0268V19.7445C119.447 20.398 119.261 21.0526 118.858 21.5719C118.646 21.7638 118.398 21.9106 118.128 22.0033C117.857 22.096 117.571 22.1326 117.286 22.1109H116.016V15.7426ZM128.016 34.7836H131.507V25.3271L135.729 12.5722H132.33L129.953 20.7313H129.889L127.504 12.5722H123.793L128.016 25.3271V34.7836Z" fill="#FF0000"/>
<path d="M145.316 0H11.9629V47.0816H148.972V0H145.316ZM145.316 43.436H15.5364V3.65469H145.316V43.436Z" fill="#FF0000"/>
<path d="M134.916 46.5059C134.385 46.499 133.863 46.3708 133.39 46.1313V54.3544H3.65577V14.5639H13.8188C13.5698 13.9702 13.4769 13.3227 13.5489 12.683C13.6209 12.0434 13.8554 11.4327 14.2301 10.9092H0V57.9999H137.036V46.1222C136.357 46.3722 135.64 46.502 134.916 46.5059Z" fill="#FF0000"/>
<path d="M16.2765 44.7882L2.85065 57.205L0.273333 54.6284L13.6991 42.2116L16.2765 44.7882ZM14.5308 2.58559L2.64958 13.5131L0.0722656 10.9366L11.9535 0.0090332L14.5308 2.58559Z" fill="#FF0000"/>
</g>
<defs>
<clipPath id="clip0_2716_4188">
<rect width="149" height="58" fill="white"/>
</clipPath>
</defs>
</svg>
