<svg width="56" height="56" viewBox="0 0 56 56" fill="none" xmlns="http://www.w3.org/2000/svg">
<path d="M56 28C56 43.464 43.464 56 28 56C12.536 56 0 43.464 0 28C0 12.536 12.536 0 28 0C43.464 0 56 12.536 56 28Z" fill="#E95454"/>
<path fill-rule="evenodd" clip-rule="evenodd" d="M14 18.9211C14 16.2032 16.2032 14 18.9211 14H31.0789C33.7968 14 36 16.2032 36 18.9211V31.0789C36 33.7968 33.7968 36 31.0789 36H14.8202C14.3672 36 14 35.6328 14 35.1798V18.9211ZM17.6637 21.7434C17.6637 21.5169 17.8473 21.3333 18.0737 21.3333H31.9202C32.1467 21.3333 32.3303 21.5169 32.3303 21.7434V23.6733C32.3303 23.8997 32.1467 24.0833 31.9202 24.0833H18.0737C17.8473 24.0833 17.6637 23.8997 17.6637 23.6733V21.7434ZM18.0737 26.8333C17.8473 26.8333 17.6637 27.0169 17.6637 27.2434V29.1733C17.6637 29.3997 17.8473 29.5833 18.0737 29.5833H26.4202C26.6467 29.5833 26.8303 29.3997 26.8303 29.1733V27.2434C26.8303 27.0169 26.6467 26.8333 26.4202 26.8333H18.0737Z" fill="#FEFEFF"/>
<path fill-rule="evenodd" clip-rule="evenodd" d="M45 36.5C45 41.1944 41.1944 45 36.5 45C35.0301 45 33.6473 44.6269 32.4412 43.9702L28 45L29.1041 40.6923C28.4013 39.4552 28 38.0245 28 36.5C28 31.8056 31.8056 28 36.5 28C41.1944 28 45 31.8056 45 36.5Z" fill="#E95454"/>
<path d="M42.875 36.5C42.875 40.0208 40.0208 42.875 36.5 42.875C35.1571 42.875 33.9112 42.4598 32.8836 41.7507L30.7045 42.2955L31.2756 40.1542C30.5505 39.1194 30.125 37.8594 30.125 36.5C30.125 32.9792 32.9792 30.125 36.5 30.125C40.0208 30.125 42.875 32.9792 42.875 36.5Z" fill="url(#paint0_linear_5172_11596)"/>
<path fill-rule="evenodd" clip-rule="evenodd" d="M36.5 43.9375C40.6076 43.9375 43.9375 40.6076 43.9375 36.5C43.9375 32.3924 40.6076 29.0625 36.5 29.0625C32.3924 29.0625 29.0625 32.3924 29.0625 36.5C29.0625 37.8339 29.4137 39.0858 30.0286 40.1683L29.0625 43.9375L32.9485 43.0364C34.0039 43.611 35.2138 43.9375 36.5 43.9375ZM36.5 42.7933C39.9757 42.7933 42.7933 39.9757 42.7933 36.5C42.7933 33.0243 39.9757 30.2067 36.5 30.2067C33.0243 30.2067 30.2067 33.0243 30.2067 36.5C30.2067 37.842 30.6268 39.0858 31.3425 40.1073L30.7788 42.2212L32.93 41.6834C33.9443 42.3834 35.1743 42.7933 36.5 42.7933Z" fill="white"/>
<path d="M34.6416 33.0469C34.4648 32.6917 34.1935 32.7232 33.9195 32.7232C33.4297 32.7232 32.666 33.3098 32.666 34.4016C32.666 35.2964 33.0603 36.2759 34.3889 37.7411C35.6712 39.1552 37.356 39.8867 38.7546 39.8618C40.1533 39.8369 40.4411 38.6333 40.4411 38.2268C40.4411 38.0466 40.3293 37.9568 40.2523 37.9323C39.7756 37.7036 38.8966 37.2774 38.6965 37.1973C38.4965 37.1172 38.3921 37.2255 38.3272 37.2844C38.1458 37.4573 37.7862 37.9667 37.6631 38.0813C37.54 38.1959 37.3564 38.1379 37.2801 38.0946C36.999 37.9818 36.2369 37.6428 35.6294 37.054C34.8782 36.3257 34.8341 36.0752 34.6925 35.8521C34.5793 35.6737 34.6624 35.5642 34.7039 35.5164C34.8657 35.3296 35.0892 35.0413 35.1895 34.898C35.2897 34.7547 35.2101 34.5371 35.1624 34.4016C34.957 33.8189 34.7831 33.331 34.6416 33.0469Z" fill="white"/>
<defs>
<linearGradient id="paint0_linear_5172_11596" x1="42.0781" y1="31.7187" x2="30.125" y2="42.875" gradientUnits="userSpaceOnUse">
<stop stop-color="#5BD066"/>
<stop offset="1" stop-color="#27B43E"/>
</linearGradient>
</defs>
</svg>
