<svg width="92" height="92" viewBox="0 0 92 92" fill="none" xmlns="http://www.w3.org/2000/svg">
<g filter="url(#filter0_dd_5172_8153)">
<circle cx="46" cy="42" r="28" fill="white"/>
<circle cx="46" cy="42" r="27" stroke="#E95454" stroke-width="2"/>
</g>
<path fill-rule="evenodd" clip-rule="evenodd" d="M34 36C34 32.6863 36.6863 30 40 30H52C55.3137 30 58 32.6863 58 36V48C58 51.3137 55.3137 54 52 54H35C34.4477 54 34 53.5523 34 53V36ZM38 38.5C38 38.2239 38.2239 38 38.5 38H53.5C53.7761 38 54 38.2239 54 38.5V40.5C54 40.7761 53.7761 41 53.5 41H38.5C38.2239 41 38 40.7761 38 40.5V38.5ZM38.5 44C38.2239 44 38 44.2239 38 44.5V46.5C38 46.7761 38.2239 47 38.5 47H47.5C47.7761 47 48 46.7761 48 46.5V44.5C48 44.2239 47.7761 44 47.5 44H38.5Z" fill="#E95454"/>
<defs>
<filter id="filter0_dd_5172_8153" x="0" y="0" width="92" height="92" filterUnits="userSpaceOnUse" color-interpolation-filters="sRGB">
<feFlood flood-opacity="0" result="BackgroundImageFix"/>
<feColorMatrix in="SourceAlpha" type="matrix" values="0 0 0 0 0 0 0 0 0 0 0 0 0 0 0 0 0 0 127 0" result="hardAlpha"/>
<feOffset dy="4"/>
<feGaussianBlur stdDeviation="9"/>
<feComposite in2="hardAlpha" operator="out"/>
<feColorMatrix type="matrix" values="0 0 0 0 0.0941176 0 0 0 0 0.152941 0 0 0 0 0.294118 0 0 0 0.15 0"/>
<feBlend mode="normal" in2="BackgroundImageFix" result="effect1_dropShadow_5172_8153"/>
<feColorMatrix in="SourceAlpha" type="matrix" values="0 0 0 0 0 0 0 0 0 0 0 0 0 0 0 0 0 0 127 0" result="hardAlpha"/>
<feOffset dy="4"/>
<feGaussianBlur stdDeviation="9"/>
<feComposite in2="hardAlpha" operator="out"/>
<feColorMatrix type="matrix" values="0 0 0 0 0.0941176 0 0 0 0 0.152941 0 0 0 0 0.294118 0 0 0 0.15 0"/>
<feBlend mode="normal" in2="effect1_dropShadow_5172_8153" result="effect2_dropShadow_5172_8153"/>
<feBlend mode="normal" in="SourceGraphic" in2="effect2_dropShadow_5172_8153" result="shape"/>
</filter>
</defs>
</svg>
