<svg width="56" height="56" viewBox="0 0 56 56" fill="none" xmlns="http://www.w3.org/2000/svg">
<path d="M56 28C56 43.464 43.464 56 28 56C12.536 56 0 43.464 0 28C0 12.536 12.536 0 28 0C43.464 0 56 12.536 56 28Z" fill="#E95454"/>
<path d="M16.5901 24.9543C16.0897 23.9096 15.3221 24.0021 14.5467 24.0021C13.1609 24.0021 11 25.7275 11 28.9388C11 31.5705 12.1157 34.4514 15.8751 38.7609C19.5033 42.92 24.2705 45.0714 28.2281 44.9982C32.1857 44.9249 33 41.3849 33 40.1894C33 39.6595 32.6837 39.3951 32.4657 39.3233C31.1171 38.6505 28.6297 37.3969 28.0637 37.1614C27.4977 36.9258 27.2022 37.2444 27.0185 37.4177C26.5052 37.9261 25.4878 39.4245 25.1395 39.7615C24.7911 40.0985 24.2718 39.9279 24.0557 39.8005C23.2604 39.4688 21.104 38.4718 19.3852 36.7398C17.2594 34.5979 17.1347 33.8609 16.7342 33.205C16.4138 32.6802 16.6489 32.3582 16.7662 32.2175C17.2242 31.6682 17.8566 30.8201 18.1402 30.3986C18.4238 29.9772 18.1987 29.3373 18.0636 28.9388C17.4826 27.2248 16.9903 25.79 16.5901 24.9543Z" fill="white"/>
<path d="M41.25 23C41.25 27.5563 37.5563 31.25 33 31.25C31.2621 31.25 29.6497 30.7126 28.32 29.795L25.5 30.5L26.239 27.7289C25.3006 26.3898 24.75 24.7592 24.75 23C24.75 18.4437 28.4437 14.75 33 14.75C37.5563 14.75 41.25 18.4437 41.25 23Z" fill="url(#paint0_linear_5269_2362)"/>
<path fill-rule="evenodd" clip-rule="evenodd" d="M33 32.625C38.3157 32.625 42.625 28.3157 42.625 23C42.625 17.6843 38.3157 13.375 33 13.375C27.6843 13.375 23.375 17.6843 23.375 23C23.375 24.7262 23.8294 26.3463 24.6252 27.7472L23.375 32.625L28.404 31.4589C29.7697 32.2025 31.3355 32.625 33 32.625ZM33 31.1442C37.4979 31.1442 41.1442 27.4979 41.1442 23C41.1442 18.5021 37.4979 14.8558 33 14.8558C28.5021 14.8558 24.8558 18.5021 24.8558 23C24.8558 24.7367 25.3993 26.3464 26.3256 27.6683L25.5962 30.4038L28.38 29.7079C29.6927 30.6138 31.2844 31.1442 33 31.1442Z" fill="white"/>
<path d="M30.5957 18.5313C30.3669 18.0716 30.0158 18.1123 29.6612 18.1123C29.0274 18.1123 28.0391 18.8715 28.0391 20.2844C28.0391 21.4424 28.5493 22.71 30.2687 24.6062C31.9281 26.4361 34.1084 27.3828 35.9185 27.3506C37.7285 27.3183 38.1009 25.7607 38.1009 25.2347C38.1009 25.0015 37.9562 24.8852 37.8566 24.8536C37.2398 24.5576 36.1021 24.006 35.8433 23.9024C35.5844 23.7987 35.4493 23.9389 35.3652 24.0152C35.1305 24.2389 34.6652 24.8981 34.5059 25.0464C34.3465 25.1947 34.109 25.1197 34.0102 25.0636C33.6464 24.9176 32.6602 24.479 31.8741 23.7169C30.9019 22.7744 30.8448 22.4502 30.6616 22.1616C30.5151 21.9306 30.6226 21.789 30.6763 21.7271C30.8858 21.4854 31.175 21.1122 31.3047 20.9268C31.4344 20.7413 31.3314 20.4598 31.2697 20.2844C31.0039 19.5303 30.7788 18.899 30.5957 18.5313Z" fill="white"/>
<defs>
<linearGradient id="paint0_linear_5269_2362" x1="40.2187" y1="16.8125" x2="24.75" y2="31.25" gradientUnits="userSpaceOnUse">
<stop stop-color="#5BD066"/>
<stop offset="1" stop-color="#27B43E"/>
</linearGradient>
</defs>
</svg>
